<?xml version="1.0" encoding="UTF-8" standalone="no"?>
<!DOCTYPE svg PUBLIC "-//W3C//DTD SVG 1.1//EN"
 "http://www.w3.org/Graphics/SVG/1.1/DTD/svg11.dtd">
<!-- Generated by graphviz version 13.1.1 (20250720.1534)
 -->
<!-- Title: snakemake_dag Pages: 1 -->
<svg width="483pt" height="332pt"
 viewBox="0.00 0.00 483.00 332.00" xmlns="http://www.w3.org/2000/svg" xmlns:xlink="http://www.w3.org/1999/xlink">
<g id="graph0" class="graph" transform="scale(1 1) rotate(0) translate(4 328)">
<title>snakemake_dag</title>
<polygon fill="white" stroke="none" points="-4,4 -4,-328 478.84,-328 478.84,4 -4,4"/>
<!-- 0 -->
<g id="node1" class="node">
<title>0</title>
<path fill="none" stroke="#d88d56" stroke-width="2" stroke-dasharray="5,2" d="M238.84,-36C238.84,-36 208.84,-36 208.84,-36 202.84,-36 196.84,-30 196.84,-24 196.84,-24 196.84,-12 196.84,-12 196.84,-6 202.84,0 208.84,0 208.84,0 238.84,0 238.84,0 244.84,0 250.84,-6 250.84,-12 250.84,-12 250.84,-24 250.84,-24 250.84,-30 244.84,-36 238.84,-36"/>
<text xml:space="preserve" text-anchor="middle" x="223.84" y="-15.62" font-family="sans" font-size="10.00">all</text>
</g>
<!-- 1 -->
<g id="node2" class="node">
<title>1</title>
<path fill="none" stroke="#d8bc56" stroke-width="2" stroke-dasharray="5,2" d="M202.84,-252C202.84,-252 172.84,-252 172.84,-252 166.84,-252 160.84,-246 160.84,-240 160.84,-240 160.84,-228 160.84,-228 160.84,-222 166.84,-216 172.84,-216 172.84,-216 202.84,-216 202.84,-216 208.84,-216 214.84,-222 214.84,-228 214.84,-228 214.84,-240 214.84,-240 214.84,-246 208.84,-252 202.84,-252"/>
<text xml:space="preserve" text-anchor="middle" x="187.84" y="-231.62" font-family="sans" font-size="10.00">limma</text>
</g>
<!-- 1&#45;&gt;0 -->
<g id="edge1" class="edge">
<title>1&#45;&gt;0</title>
<path fill="none" stroke="grey" stroke-width="2" d="M184.49,-215.1C179.56,-184.84 172.48,-121.96 187.84,-72 190.52,-63.29 195.18,-54.72 200.27,-47.1"/>
<polygon fill="grey" stroke="grey" stroke-width="2" points="203,-49.29 206.07,-39.15 197.35,-45.16 203,-49.29"/>
</g>
<!-- 3 -->
<g id="node4" class="node">
<title>3</title>
<path fill="none" stroke="#bed856" stroke-width="2" stroke-dasharray="5,2" d="M276.84,-180C276.84,-180 246.84,-180 246.84,-180 240.84,-180 234.84,-174 234.84,-168 234.84,-168 234.84,-156 234.84,-156 234.84,-150 240.84,-144 246.84,-144 246.84,-144 276.84,-144 276.84,-144 282.84,-144 288.84,-150 288.84,-156 288.84,-156 288.84,-168 288.84,-168 288.84,-174 282.84,-180 276.84,-180"/>
<text xml:space="preserve" text-anchor="middle" x="261.84" y="-159.62" font-family="sans" font-size="10.00">gsea</text>
</g>
<!-- 1&#45;&gt;3 -->
<g id="edge11" class="edge">
<title>1&#45;&gt;3</title>
<path fill="none" stroke="grey" stroke-width="2" d="M206.51,-215.34C214.69,-207.6 224.46,-198.36 233.5,-189.81"/>
<polygon fill="grey" stroke="grey" stroke-width="2" points="235.86,-192.4 240.72,-182.98 231.05,-187.31 235.86,-192.4"/>
</g>
<!-- 5 -->
<g id="node6" class="node">
<title>5</title>
<path fill="none" stroke="#568ad8" stroke-width="2" stroke-dasharray="5,2" d="M56.84,-180C56.84,-180 26.84,-180 26.84,-180 20.84,-180 14.84,-174 14.84,-168 14.84,-168 14.84,-156 14.84,-156 14.84,-150 20.84,-144 26.84,-144 26.84,-144 56.84,-144 56.84,-144 62.84,-144 68.84,-150 68.84,-156 68.84,-156 68.84,-168 68.84,-168 68.84,-174 62.84,-180 56.84,-180"/>
<text xml:space="preserve" text-anchor="middle" x="41.84" y="-159.62" font-family="sans" font-size="10.00">figure2</text>
</g>
<!-- 1&#45;&gt;5 -->
<g id="edge13" class="edge">
<title>1&#45;&gt;5</title>
<path fill="none" stroke="grey" stroke-width="2" d="M160.04,-219.67C137.71,-208.96 106.09,-193.8 81.17,-181.85"/>
<polygon fill="grey" stroke="grey" stroke-width="2" points="82.8,-178.76 72.27,-177.59 79.78,-185.07 82.8,-178.76"/>
</g>
<!-- 6 -->
<g id="node7" class="node">
<title>6</title>
<path fill="none" stroke="#56d88a" stroke-width="2" stroke-dasharray="5,2" d="M128.84,-180C128.84,-180 98.84,-180 98.84,-180 92.84,-180 86.84,-174 86.84,-168 86.84,-168 86.84,-156 86.84,-156 86.84,-150 92.84,-144 98.84,-144 98.84,-144 128.84,-144 128.84,-144 134.84,-144 140.84,-150 140.84,-156 140.84,-156 140.84,-168 140.84,-168 140.84,-174 134.84,-180 128.84,-180"/>
<text xml:space="preserve" text-anchor="middle" x="113.84" y="-159.62" font-family="sans" font-size="10.00">figure3</text>
</g>
<!-- 1&#45;&gt;6 -->
<g id="edge14" class="edge">
<title>1&#45;&gt;6</title>
<path fill="none" stroke="grey" stroke-width="2" d="M169.17,-215.34C160.99,-207.6 151.22,-198.36 142.18,-189.81"/>
<polygon fill="grey" stroke="grey" stroke-width="2" points="144.63,-187.31 134.96,-182.98 139.82,-192.4 144.63,-187.31"/>
</g>
<!-- 7 -->
<g id="node8" class="node">
<title>7</title>
<path fill="none" stroke="#d85656" stroke-width="2" stroke-dasharray="5,2" d="M348.84,-108C348.84,-108 318.84,-108 318.84,-108 312.84,-108 306.84,-102 306.84,-96 306.84,-96 306.84,-84 306.84,-84 306.84,-78 312.84,-72 318.84,-72 318.84,-72 348.84,-72 348.84,-72 354.84,-72 360.84,-78 360.84,-84 360.84,-84 360.84,-96 360.84,-96 360.84,-102 354.84,-108 348.84,-108"/>
<text xml:space="preserve" text-anchor="middle" x="333.84" y="-87.62" font-family="sans" font-size="10.00">figure4</text>
</g>
<!-- 1&#45;&gt;7 -->
<g id="edge16" class="edge">
<title>1&#45;&gt;7</title>
<path fill="none" stroke="grey" stroke-width="2" d="M215.68,-225.81C240.24,-218.16 275.52,-203.82 297.84,-180 313.14,-163.68 322.29,-140 327.54,-121.18"/>
<polygon fill="grey" stroke="grey" stroke-width="2" points="330.87,-122.27 329.9,-111.72 324.08,-120.57 330.87,-122.27"/>
</g>
<!-- 8 -->
<g id="node9" class="node">
<title>8</title>
<path fill="none" stroke="#88d856" stroke-width="2" stroke-dasharray="5,2" d="M238.84,-108C238.84,-108 208.84,-108 208.84,-108 202.84,-108 196.84,-102 196.84,-96 196.84,-96 196.84,-84 196.84,-84 196.84,-78 202.84,-72 208.84,-72 208.84,-72 238.84,-72 238.84,-72 244.84,-72 250.84,-78 250.84,-84 250.84,-84 250.84,-96 250.84,-96 250.84,-102 244.84,-108 238.84,-108"/>
<text xml:space="preserve" text-anchor="middle" x="223.84" y="-87.62" font-family="sans" font-size="10.00">figure5</text>
</g>
<!-- 1&#45;&gt;8 -->
<g id="edge18" class="edge">
<title>1&#45;&gt;8</title>
<path fill="none" stroke="grey" stroke-width="2" d="M192.4,-215.02C198.38,-191.44 208.95,-149.73 216.17,-121.25"/>
<polygon fill="grey" stroke="grey" stroke-width="2" points="219.51,-122.33 218.57,-111.77 212.72,-120.61 219.51,-122.33"/>
</g>
<!-- 2 -->
<g id="node3" class="node">
<title>2</title>
<path fill="none" stroke="#56c1d8" stroke-width="2" stroke-dasharray="5,2" d="M207.09,-324C207.09,-324 168.59,-324 168.59,-324 162.59,-324 156.59,-318 156.59,-312 156.59,-312 156.59,-300 156.59,-300 156.59,-294 162.59,-288 168.59,-288 168.59,-288 207.09,-288 207.09,-288 213.09,-288 219.09,-294 219.09,-300 219.09,-300 219.09,-312 219.09,-312 219.09,-318 213.09,-324 207.09,-324"/>
<text xml:space="preserve" text-anchor="middle" x="187.84" y="-303.62" font-family="sans" font-size="10.00">data_prep</text>
</g>
<!-- 2&#45;&gt;0 -->
<g id="edge9" class="edge">
<title>2&#45;&gt;0</title>
<path fill="none" stroke="grey" stroke-width="2" d="M156.02,-294.72C95.38,-273.18 -27.86,-219.04 5.84,-144 37.54,-73.41 129.97,-40.63 183.75,-27.15"/>
<polygon fill="grey" stroke="grey" stroke-width="2" points="184.34,-30.61 193.27,-24.9 182.73,-23.8 184.34,-30.61"/>
</g>
<!-- 2&#45;&gt;1 -->
<g id="edge10" class="edge">
<title>2&#45;&gt;1</title>
<path fill="none" stroke="grey" stroke-width="2" d="M187.84,-287.34C187.84,-280.75 187.84,-273.08 187.84,-265.67"/>
<polygon fill="grey" stroke="grey" stroke-width="2" points="191.34,-265.93 187.84,-255.93 184.34,-265.93 191.34,-265.93"/>
</g>
<!-- 2&#45;&gt;5 -->
<g id="edge12" class="edge">
<title>2&#45;&gt;5</title>
<path fill="none" stroke="grey" stroke-width="2" d="M169.35,-287.02C144.12,-262.48 98.7,-218.3 69.44,-189.84"/>
<polygon fill="grey" stroke="grey" stroke-width="2" points="71.96,-187.41 62.35,-182.95 67.08,-192.43 71.96,-187.41"/>
</g>
<!-- 2&#45;&gt;7 -->
<g id="edge15" class="edge">
<title>2&#45;&gt;7</title>
<path fill="none" stroke="grey" stroke-width="2" d="M217.2,-287.01C249.08,-265.74 298.67,-227.19 322.84,-180 332.02,-162.09 334.73,-139.58 335.17,-121.68"/>
<polygon fill="grey" stroke="grey" stroke-width="2" points="338.67,-121.77 335.13,-111.79 331.67,-121.8 338.67,-121.77"/>
</g>
<!-- 9 -->
<g id="node10" class="node">
<title>9</title>
<path fill="none" stroke="#56d8c1" stroke-width="2" stroke-dasharray="5,2" d="M424.84,-252C424.84,-252 394.84,-252 394.84,-252 388.84,-252 382.84,-246 382.84,-240 382.84,-240 382.84,-228 382.84,-228 382.84,-222 388.84,-216 394.84,-216 394.84,-216 424.84,-216 424.84,-216 430.84,-216 436.84,-222 436.84,-228 436.84,-228 436.84,-240 436.84,-240 436.84,-246 430.84,-252 424.84,-252"/>
<text xml:space="preserve" text-anchor="middle" x="409.84" y="-231.62" font-family="sans" font-size="10.00">figure6</text>
</g>
<!-- 2&#45;&gt;9 -->
<g id="edge20" class="edge">
<title>2&#45;&gt;9</title>
<path fill="none" stroke="grey" stroke-width="2" d="M219.89,-296.74C256.33,-287.09 317.43,-270.13 368.84,-252 369.25,-251.86 369.66,-251.71 370.07,-251.56"/>
<polygon fill="grey" stroke="grey" stroke-width="2" points="371.29,-254.85 379.38,-248.01 368.79,-248.31 371.29,-254.85"/>
</g>
<!-- 3&#45;&gt;0 -->
<g id="edge2" class="edge">
<title>3&#45;&gt;0</title>
<path fill="none" stroke="grey" stroke-width="2" d="M264.35,-143.12C266.26,-124.79 267.42,-95.7 259.84,-72 257.06,-63.32 252.37,-54.76 247.28,-47.14"/>
<polygon fill="grey" stroke="grey" stroke-width="2" points="250.21,-45.21 241.49,-39.18 244.55,-49.33 250.21,-45.21"/>
</g>
<!-- 3&#45;&gt;7 -->
<g id="edge17" class="edge">
<title>3&#45;&gt;7</title>
<path fill="none" stroke="grey" stroke-width="2" d="M280.01,-143.34C287.96,-135.6 297.47,-126.36 306.27,-117.81"/>
<polygon fill="grey" stroke="grey" stroke-width="2" points="308.53,-120.49 313.26,-111.01 303.65,-115.47 308.53,-120.49"/>
</g>
<!-- 3&#45;&gt;8 -->
<g id="edge19" class="edge">
<title>3&#45;&gt;8</title>
<path fill="none" stroke="grey" stroke-width="2" d="M252.25,-143.34C248.46,-136.34 243.99,-128.12 239.74,-120.28"/>
<polygon fill="grey" stroke="grey" stroke-width="2" points="242.85,-118.68 235,-111.56 236.7,-122.02 242.85,-118.68"/>
</g>
<!-- 4 -->
<g id="node5" class="node">
<title>4</title>
<path fill="none" stroke="#59d856" stroke-width="2" stroke-dasharray="5,2" d="M462.84,-108C462.84,-108 432.84,-108 432.84,-108 426.84,-108 420.84,-102 420.84,-96 420.84,-96 420.84,-84 420.84,-84 420.84,-78 426.84,-72 432.84,-72 432.84,-72 462.84,-72 462.84,-72 468.84,-72 474.84,-78 474.84,-84 474.84,-84 474.84,-96 474.84,-96 474.84,-102 468.84,-108 462.84,-108"/>
<text xml:space="preserve" text-anchor="middle" x="447.84" y="-87.62" font-family="sans" font-size="10.00">figure1</text>
</g>
<!-- 4&#45;&gt;0 -->
<g id="edge3" class="edge">
<title>4&#45;&gt;0</title>
<path fill="none" stroke="grey" stroke-width="2" d="M420.21,-77.06C415.77,-75.28 411.2,-73.53 406.84,-72 358.4,-55 301.43,-39.13 264.08,-29.27"/>
<polygon fill="grey" stroke="grey" stroke-width="2" points="265.23,-25.96 254.67,-26.81 263.45,-32.73 265.23,-25.96"/>
</g>
<!-- 5&#45;&gt;0 -->
<g id="edge4" class="edge">
<title>5&#45;&gt;0</title>
<path fill="none" stroke="grey" stroke-width="2" d="M56.8,-143.16C73.37,-124.07 101.52,-93.63 129.84,-72 146.66,-59.16 166.93,-47.33 184.34,-38.12"/>
<polygon fill="grey" stroke="grey" stroke-width="2" points="185.88,-41.27 193.16,-33.57 182.67,-35.05 185.88,-41.27"/>
</g>
<!-- 6&#45;&gt;0 -->
<g id="edge5" class="edge">
<title>6&#45;&gt;0</title>
<path fill="none" stroke="grey" stroke-width="2" d="M119.18,-143.23C125.5,-124.2 137.43,-93.8 154.84,-72 163.48,-61.18 174.79,-51.31 185.74,-43.1"/>
<polygon fill="grey" stroke="grey" stroke-width="2" points="187.45,-46.17 193.56,-37.51 183.39,-40.47 187.45,-46.17"/>
</g>
<!-- 7&#45;&gt;0 -->
<g id="edge6" class="edge">
<title>7&#45;&gt;0</title>
<path fill="none" stroke="grey" stroke-width="2" d="M306.08,-71.34C292.8,-62.88 276.67,-52.62 262.23,-43.43"/>
<polygon fill="grey" stroke="grey" stroke-width="2" points="264.46,-40.7 254.14,-38.28 260.7,-46.61 264.46,-40.7"/>
</g>
<!-- 8&#45;&gt;0 -->
<g id="edge7" class="edge">
<title>8&#45;&gt;0</title>
<path fill="none" stroke="grey" stroke-width="2" d="M223.84,-71.34C223.84,-64.75 223.84,-57.08 223.84,-49.67"/>
<polygon fill="grey" stroke="grey" stroke-width="2" points="227.34,-49.93 223.84,-39.93 220.34,-49.93 227.34,-49.93"/>
</g>
<!-- 9&#45;&gt;0 -->
<g id="edge8" class="edge">
<title>9&#45;&gt;0</title>
<path fill="none" stroke="grey" stroke-width="2" d="M410.53,-215.04C410.8,-182.38 406.65,-112.88 369.84,-72 342.88,-42.06 297.66,-29.01 264.67,-23.34"/>
<polygon fill="grey" stroke="grey" stroke-width="2" points="265.22,-19.88 254.81,-21.85 264.17,-26.81 265.22,-19.88"/>
</g>
</g>
</svg>
